<svg t="1529057680343" class="icon" viewBox="0 0 1024 1024" version="1.1" xmlns="http://www.w3.org/2000/svg" p-id="3022" height="16" width="16"><path d="M128 59.733333l810.666667 810.666667c25.6 25.6 25.6 68.266667 0 93.866667-25.6 25.6-68.266667 25.6-93.866667 0L34.133333 153.6C17.066667 128 17.066667 85.333333 34.133333 59.733333c25.6-25.6 68.266667-25.6 93.866667 0z" p-id="3023" fill="#707070"></path><path d="M947.2 153.6l-810.666667 810.666667c-25.6 25.6-68.266667 25.6-93.866666 0-25.6-25.6-25.6-68.266667 0-93.866667L853.333333 59.733333c25.6-25.6 68.266667-25.6 93.866667 0 17.066667 25.6 17.066667 68.266667 0 93.866667z" p-id="3024" fill="#707070"></path></svg>